<?xml version="1.0" encoding="UTF-8" standalone="no"?>
<!-- Generator: Adobe Illustrator 16.0.0, SVG Export Plug-In . SVG Version: 6.00 Build 0)  -->

<svg
   xmlns:dc="http://purl.org/dc/elements/1.1/"
   xmlns:cc="http://creativecommons.org/ns#"
   xmlns:rdf="http://www.w3.org/1999/02/22-rdf-syntax-ns#"
   xmlns:svg="http://www.w3.org/2000/svg"
   xmlns="http://www.w3.org/2000/svg"
   xmlns:sodipodi="http://sodipodi.sourceforge.net/DTD/sodipodi-0.dtd"
   xmlns:inkscape="http://www.inkscape.org/namespaces/inkscape"
   version="1.1"
   x="0px"
   y="0px"
   width="300px"
   height="300px"
   viewBox="0 0 300 300"
   enable-background="new 0 0 300 300"
   xml:space="preserve"
   id="svg3733"
   sodipodi:docname="leaf.svg"
   inkscape:version="0.92.2 (5c3e80d, 2017-08-06)"><metadata
     id="metadata3739"><rdf:RDF><cc:Work
         rdf:about=""><dc:format>image/svg+xml</dc:format><dc:type
           rdf:resource="http://purl.org/dc/dcmitype/StillImage" /></cc:Work></rdf:RDF></metadata><defs
     id="defs3737" /><sodipodi:namedview
     pagecolor="#ffffff"
     bordercolor="#666666"
     borderopacity="1"
     objecttolerance="10"
     gridtolerance="10"
     guidetolerance="10"
     inkscape:pageopacity="0"
     inkscape:pageshadow="2"
     inkscape:window-width="1920"
     inkscape:window-height="986"
     id="namedview3735"
     showgrid="false"
     inkscape:zoom="0.78666667"
     inkscape:cx="150"
     inkscape:cy="150"
     inkscape:window-x="-11"
     inkscape:window-y="-11"
     inkscape:window-maximized="1"
     inkscape:current-layer="svg3733" /><g
     id="shapes"><path
       id="leaf"
       fill="none"
       d="M141.412,71.191c0,0,3.755-8.878,10.584-0.171c2.219,2.902,16.219,15.194,21.512,38.583   c1.536,11.445,3.414,22.868,0.511,39.266c-2.048,6.658-2.56,10.414-12.975,31.754c-1.194,2.562-2.561,6.317-2.39,10.415   c-0.342,5.804-1.536,24.754-0.171,48.484c-2.732-0.684-5.292-2.391-5.292-2.391c-0.854-10.413-2.902-35.51-4.951-41.144   c-4.78-8.536-24.072-51.388-25.95-63.68c-1.195-8.706-3.073-15.877,8.707-42.339C134.583,82.117,141.412,71.191,141.412,71.191z" /></g><g
     id="outline"><path
       id="leaf2"
       stroke-miterlimit="10"
       d="M141.412,71.191   c0,0,3.755-8.878,10.584-0.171c2.219,2.902,16.219,15.194,21.512,38.583c1.536,11.445,3.414,22.868,0.511,39.266   c-2.048,6.658-2.56,10.414-12.975,31.754c-1.194,2.562-2.561,6.317-2.39,10.415c-0.342,5.804-1.536,24.754-0.171,48.484   c-2.732-0.684-5.292-2.391-5.292-2.391c-0.854-10.413-2.902-35.51-4.951-41.144c-4.78-8.536-24.072-51.388-25.95-63.68   c-1.195-8.706-3.073-15.877,8.707-42.339C134.583,82.117,141.412,71.191,141.412,71.191z"
       stroke-width="0.5"
       stroke="#000000"
       fill="none" /><path
       stroke-miterlimit="10"
       d="M149.781,158.473   c-0.014-2.055-0.452-10.045-0.396-11.993h0.05c0-0.209-0.018-0.422-0.033-0.634c0.511-16.025,3.05-28.056,3.097-28.246"
       id="path3724"
       stroke-width="0.5"
       stroke="#000000"
       fill="none" /><path
       stroke-miterlimit="10"
       d="M151.803,176.821   c-1.165-6.156-1.775-12.373-2.022-18.349c0.16-4.696,3.241-9.082,3.273-9.134"
       id="path3726"
       stroke-width="0.5"
       stroke="#000000"
       fill="none" /><path
       stroke-miterlimit="10"
       d="M143.758,135.697   c0.044,0.059,5.848,18.564,6.023,22.775"
       id="path3728"
       stroke-width="0.5"
       stroke="#000000"
       fill="none" /><path
       stroke-miterlimit="10"
       d="M148.246,141.184"
       id="path3730"
       stroke-width="0.5"
       stroke="#000000"
       fill="none" /></g></svg>